<?xml version="1.0" encoding="utf-8"?>
<!-- Generator: Adobe Illustrator 19.2.1, SVG Export Plug-In . SVG Version: 6.00 Build 0)  -->
<svg version="1.1" id="Слой_1" xmlns="http://www.w3.org/2000/svg" xmlns:xlink="http://www.w3.org/1999/xlink" x="0px" y="0px"
	 viewBox="0 0 467.5 470.2" style="enable-background:new 0 0 467.5 470.2;fill:#E27100;" xml:space="preserve">
<title>bmx</title>
<path d="M172.7,398c0,5.2,0.9,3.9-2,6C169.7,399.6,168.7,400.7,172.7,398L172.7,398z M174.7,385c-0.6,2.6-3.2,8-5.2,6
	S172.4,385.6,174.7,385L174.7,385z M152.7,392c0,18,0,4.4,9.4,20.6l4.5,11.5c1.1,2.1-0.3,2.9,3.1,2.9c6.8,0,22.3-19.1,29.4-24.6
	c6.8-5.3,12.5-12.3,21.3-19.7c2.9-2.4,4.2-4.6,7.3-6.7c14.1,9.4,0.8,27.7-7.8,36.3c-17.6,17.6-54,36.8-79.3,36.8
	c-17.6,0-36-6.6-36-25c0-19.6,43.3-49.3,55-52c-0.4,4.3-1.5,12.8-4,16C154.1,390,152.7,388.6,152.7,392L152.7,392L152.7,392z
	 M179.7,412c-0.8-9.5-3.2,2.1,0.1-14.9c2.5-13,5.8-10.3,17.2-21.8c14.5-14.7,10.4-8.4,23.7-5.3c-4.4,6.5-16.7,16.5-22.6,23.4
	l-0.9,1.1L179.7,412L179.7,412L179.7,412z M163.7,382c0.6-2.8,2-8.7,3.1-10.9c1.6-3.3,5.1-4,9.9-4.1
	C176.2,373.4,168.1,379.1,163.7,382L163.7,382z M182.7,380c1.5-3.1,0.3-2.5,2.7-5.3c1.5-1.7,2.8-2.2,4.4-3.6c4-3.2,3.8-6,9.9-6.2
	C198.4,367,185.5,379.3,182.7,380L182.7,380L182.7,380z M139.7,358l-2,1L139.7,358L139.7,358z M141.7,357l-2,1L141.7,357L141.7,357z
	 M235.7,355c0.5-2.2,1.5-4.3,2.9-6.1c1.9-2.8,2.1-3.6,6.1-3.9C243.6,349.2,238.9,352.9,235.7,355L235.7,355z M217.7,348
	c1.8-2.5,1.4-2.2,5-3C220.9,347.5,221.4,347.2,217.7,348L217.7,348z M179.7,340c0,5.6,1.3,5.9-3,7c0.3-1.3,0.6-2.6,1.1-3.9
	C178.2,342,178.8,340.9,179.7,340L179.7,340z M179.7,340l0.6-2.2L179.7,340L179.7,340z M201.7,346c9.6-14.4,9.6-11,30-11
	c-4.3,5.9-1.2-4.6-17.6,5.4C209.5,343.3,208.3,346,201.7,346L201.7,346z M188.7,346v-14c7.3,0,10.5,1,17,1
	C193.5,351.3,196.3,342.4,188.7,346L188.7,346z M141.7,357c1.9-2.6,4.7-3.1,7.3-9.7c1.9-4.8,1.7-9,1.7-15.3c6.2-1.5,13.7,0,22,0
	c-0.7,3.2-2.8,6.8-4,10c-0.4,1.1-1.5,4.5-1.9,5.2c-1.3,2.4-0.3,1.8-3.9,3.1L141.7,357L141.7,357z M225.7,322c1-4.1,0.6-4.6,5-5
	C230.4,321.2,229.9,321.7,225.7,322L225.7,322z M211.7,323l-16-1c4.1-6.1,14.7-17.1,20-25c3.7,1,11.6,8,13,10
	c-3.8,1-6.7,4.3-8.9,7.1C215.7,319.4,214.5,323,211.7,323L211.7,323z M264.7,237L264.7,237z M264.7,237c1.3-2,2.7-3.9,4.2-5.8
	c2-2.5,2.4-4.3,5.8-5.2c-0.4,4.9-3,7.3-5,11H264.7z M330.7,229c1.1-4.6,3.1-8,4-12c10.3,0,20.7,0,31,0c4.6,0,13.9-0.8,16,2
	c0.1,0.1,1.1,2,1.4,2.6c1.2,2.6,1.5,3,1.6,6.5c-5,0-6.2,1-12,1L330.7,229L330.7,229L330.7,229z M252.9,230.3c-2.7-1.9-4.4-3-5.2-6.2
	h11L252.9,230.3L252.9,230.3z M308.7,222c-3.1-2.3-3.4-3.8,1-5C309.2,218.7,308.9,220.3,308.7,222L308.7,222z M241.7,205
	c3.3,0.9,4.1,1.8,5,5L241.7,205L241.7,205z M241.7,205L241.7,205z M218.7,187c3.5,2.4,10.5,9.7,13.8,13.2l12.2,14.8
	c-1.7,0.1-3.4,0.5-5,1C237,212,219.7,190.8,218.7,187L218.7,187L218.7,187z M359.7,190c0,2.3,7.5,11.2,10,16c-5-0.4-5-1-12-1
	c-5,0-10,0-15,0c3.9-5.8,12.3-15.2,18-19C360.1,188.7,359.7,187.9,359.7,190L359.7,190z M218.7,187l-1-1L218.7,187L218.7,187z
	 M217.7,186L217.7,186z M118.7,183c8.5-12.7,23.1-18.8,28.7-9.7c2,3.2,3.7,7.4,5.3,10.7c1.8,3.5,3.6,6.8,5.3,10.7
	c1.5,3.6,4,8.1,4.7,11.3C142.4,195.3,128.1,197,118.7,183L118.7,183z M220.7,182c5.7,0.5,21.7,9.1,26,12v8
	c-4.8-1.1-10.9-5.7-14.3-8.7C228.2,189.5,223.9,186.7,220.7,182L220.7,182z M366.7,181c5.8-1.4,24.9-13.7,45.8-12.7
	c20.7,1,32.2,10.4,32.2,30.7c0,17.2-15.4,37.3-28,47c-15.9,12.3-31.5,21-54,21c-13.5,0-25.6-4.8-31.4-15.6
	c-2.4-4.5-1.6-8.1-1.6-14.4c3,1.4,15,2,20,2c10.6-0.1,31.9,2.6,41.6-0.4c3.5-1.1,9.4-12.4,9.4-13.6c0-5.2-8.5-9.7-12-12
	c2.2-9.6,0.6-5.9-4.5-11.5c-1.9-2-3.6-5.4-5.3-7.7C367.4,178.4,376.3,187.7,366.7,181L366.7,181L366.7,181z M181.7,167
	c2.7,1.3,5.6,2.5,8.4,3.6c3.1,1.1,6.1,2.4,9.1,3.9c1.8,1.1,8.9,11.5,10.9,14.1c3.8,5.1,7,9.6,10.6,14.4l11,15c-2.1,3.1-3,2.2-4,6
	c-3.6-0.9-4.9-2.2-8.4-3.6c-20-8.1-5,3-20.2-18.8C187.8,185.3,181.7,184,181.7,167L181.7,167L181.7,167z M137.7,359
	c-5.7,4.9-46.4,22-55.3,58.7c-4.5,18.5,5.8,32.1,15.7,39.8c25.5,20,62.7,12.9,90.3,1.1c18.7-8,36.9-20.2,49.5-35.5
	c9.9-12,17-25.7,14.5-43c-1.3-8.9-5.7-13.1-9.8-19.2l6.8-6.2c0.2,0,0.4,0.2,0.5,0.3c0.1,0.1,0.2,0.1,0.4,0.1
	c1.4,0.2,5.3-0.5,6.3-3.2c1.1-2.9-4-18.8-4-24l3.2-2.8c8,1.6,12.7,9.8,21.2,11.4c18.5,3.3-2.7,7.5,50.6,7.5
	c17.8,0,41.5-5.7,43.8-24.3c1.3-10.9-19.7-15.4-27.6-17l-29.6-4.4c-5.8-1.1-13.6-8-22-13c-2.6-1.6-4.3-2.6-6.9-4.1
	c-5.2-3-10-6.9-7.2-14.5c1-2.6,3.7-4.8,4.7-7.4c2.6-6.7-3.4-8.3,0.2-18.7l4.5-12.6c2.3-4.9,3.4-2.8,6.2-2.5c5.3,0.6,4.2-1.1,8.3,1.8
	c1.4,1,2.9,1.9,4.4,2.7c0,22.9,2.5,38,20.7,51.3c31,22.7,77,6.7,103.6-17c6.4-5.7,12.5-11.4,17.7-18.3c4.9-6.4,10.1-14.5,13.1-22.9
	c1.7-4.6,3-9.2,4-14c2-10.1,2.5-21.6-0.5-31.7c-1.5-5.1-3.4-8-6-12c-5.1-7.8-11.3-11.9-20.3-15.7c-9.5-4-18.1-4.8-31.3-4.7
	c-31.8,0-63.7,20.8-82.7,43.3c-2.1,2.5-6.5,8.7-7.3,11.7c-1.2-1.3-0.2-1.5-2.6-2.5c-4.5-1.9-6.5,3.9-7.4,7.5c-3.8-2.8-0.9-3.6-6-5
	c-2.5,5.3,0.9,9-7,10c-8.2,1.1-21.4,2.6-25.3-6.7c-9-21.6-8.5-9.1-17.6-16.4c-3.2-2.6-6.6-4.9-10.2-6.8c-2-1-3.3-1.3-5.6-2.4
	c-6.9-3.2-29.7-10.4-33-15l-6.3-6.7c-9.8-7.5-8.5-5.1-11.7-13.3c-2.7-6.8-10.5-5.8-12.1-14c-3.3-17.1,5.7-10.3-7.1-26.9
	c-2-2.6-5.2-14-0.5-14c6.8-0.1,6-1.8,10.7-3.5c10.1-3.6,10.4-6.4,14.6-8.3c2.9-1.2,0.6-0.2,2.5-0.4c7.5-0.7,3.8-6.7,10.1-6.8
	c0.7,0,1.4,0,2.3,0c2-0.1,4.1-0.4,6.1-0.9c8.1-2.3,12.9-20.8,13.1-29c0.2-7.9-4.7-15.6-8-20c-6.9-9-24-18.4-36.1-19
	c-8.1-0.4-16.3,3.7-20.8,7.1c-7.3,5.4-15.4,15.5-16.8,25.3c-0.9,6.4,4.1,3.3,0.6,10.6c-11.2-0.3-0.5-18.5-33.3-12.3
	c-10.6,2-25.1,9.2-32.5,16.5c-5.2,5.1-4.8,10.4-8.9,15.1L50.5,80.7c-9.4,9.7-6,8.2-18.4,18.6c-4.4,3.7-8.1,8.1-10.9,13.1
	c-10.4,17.2-2.6,23-7.5,39.5c-5.8,19.6-7,19.2-3.6,40.8c2,12.3-1.6,9.1-7.5,16.1c-4.9,5.8-1.6,12.9,1.2,18.2c3.3,6.3,5.3,10,15,10
	c0.9-3.4,3-4,6.2-4.8c3.2-0.9,6.5-1.3,9.8-1.2c1.9,7.2,19.1,15.3,25,18c8.1,3.7,27.7,4,40,4c17,0,42.3,4.1,57.6,8.4
	c2.8,0.7,5.5,1.7,8.1,2.9c16.1,7.6,4,0.6,18.3,0.6c12.2,0,18,12.6,23,22.1l-13.9,17.1c-4.9,6.2-9.8,11.4-14.1,17.9
	c-13.1,0-35,5.7-20.1-12.1c4.4-5.3,5.1-3.2,5.1-12.9c-11.2-7.5-18.3,4.9-35,16c-8.3,5.6-27.6,10-16,35
	C119.1,361.7,125.1,360,137.7,359L137.7,359L137.7,359z"/>
</svg>
