<?xml version="1.0" encoding="utf-8"?>
<!-- Generator: Adobe Illustrator 19.2.1, SVG Export Plug-In . SVG Version: 6.00 Build 0)  -->
<svg version="1.1" id="Слой_1" xmlns="http://www.w3.org/2000/svg" xmlns:xlink="http://www.w3.org/1999/xlink" x="0px" y="0px"
	 viewBox="125 280 295 295" style="enable-background:new 0 0 467.5 470.2;fill:#E27100;" xml:space="preserve">
<style type="text/css">
	.st0{fill-rule:evenodd;clip-rule:evenodd;fill:red;width:35PX;height:100%}
</style>
<g>
	<path class="st0" d="M392.5,563.3c0.8-2.4,6.7-3.6,9.3-4.5c0.4-11.9-9.9-10.9-17.1-15.8c-6-4-15.6-7.5-19.6-13.4
		c-5.1-7.4,4.9-16.4,4.9-25.6c-0.1-7.8-2.9-4.4-0.7-13.9c1.1-4.5,2.1-9.1,2.9-13.5c6.8,0.1,13.3,0.9,16.2-5c5-10.3,6.8-22.5,8-33.9
		c1.1-10.5-8.5-5.7-11.1-11.7c-4.5-10.6-25.9-17.8-32.5-27.8c8.3-10.6,13.8-11.8,27.4-14.9c7-1.6,11.5-3.7,17.9-0.7
		c9.7,4.5,22,5.9,31.3,11.4c4.9,2.9,7.7,5.5,15.3,5.7c18.5,0.6,15.2-6.4,20.7-11.5c1.6-1.5,5.2-3.1,5.8-4.9
		c1.7-5.4-6.3-15.1-9.2-19.5c-2.6-4.1-14.7-11-16.7-10.1c-4,3.2-0.3,6.1-4.3,8.6c-0.8-0.9-0.3,0.7-1.1-1.9l-5.2-28.9
		c7.5,1.1,6.8-1.4,10.5-5.5c2.4-2.7,2.9-7.3,3.3-11.4l5.9-1.2c0.6-4.7-3.1-8.8-3.2-11.2c-0.1-3,1.7-0.8,1.3-4.7
		c-0.1-1.2-1-3-1.3-4.5c5.6-1,10.1,0.3,9.8-6.3c-0.2-3.8-2.3-8.9-3.8-11.6c-13-22.3-45.7-23.1-62.9-7.6c-18.4,16.6-2.9,17.9,0,27.1
		c1.3,4.3-6.2,3.8-10,4.1c-22.6,2.1-28.6,0.5-51.3,8.8c-24.5,9-39.9,17.4-57.2,34.3c-3.8,3.7-12.1,11.4-14.5,15.5
		c-9.9,17.3-5.5,24.6-4.6,38.1c0.2,3.4-1.5,9.4-2.4,12.7c-2.4,9.4-8,12.2-12.9,17.1c-13.9,14.2-10.3,8.5-6.3,17.7
		c-2,0.9-5,3.5-6.6,4.7c-10.1,7.5-17.3,9.1-25.2,19.8c-2.4,3.2-2,4.6-5.8,5.5c-10.2,2.5-14.5,13.2-18.4,15.3
		c-1.7,0.9-6.1,2.4-8.2,3.1c-6.2,1.9-10.6,3.6-16.5,6c-7.3,3-9.4,3.2-13.7,8.8c-6.2,8.2-8.9-0.8-15.6,3.2c-3,3.7-0.2,3.7-1.1,7.1
		c-0.1,0.3-8.4,16.1,10.3,14.2c-1.3,8.7,0.8,13.1,9.7,12.4c0.3,9.7,1.6,11.8,11.3,11.9c0,6.9,0.4,11.9,8.1,12.4
		c8,0.5,9.8-3.6,9.8-10.8c4.6,2.1,3.9,3.9,10.7,2.5c6.8-13.4-12-34.7,7.8-48.4c4.9-3.4,4.2-1.4,9.2-1.5c3.1-0.1,6.7-2.6,8.5-4.1
		c3.4-2.7,3.3-4.4,2.1-8.5c4-3,12.8-1.8,18.8-3.6c5.7-1.7,10.9-3.2,16.4-5.3c9-3.3,26.3-5.5,25.5-18.4c-2.2-1.7-2.7-2.8-6.2-3.2
		c0.8-3.3,2.1-5.1,3-8.7c0.7-3,1.1-6,1.2-9.2c12.8-0.9,5.9-2.9,17-5.4c7-1.6,6.5-8.4,5.4-15.8c7.9,4.5,16.3,15.6,23.8,21.7
		c18,14.8,24.7-3.3,32.7,6.7c-0.6,4.6-2.6,10.6-3.7,15.5c-1.6,6.9-0.1,11.6,0,18.2c-3.6,3.4-3.5,2.5-3.4,11.4l-4.2,0.3
		c-2.5,11.3-4.6,22.3-6.8,33.7c-1,5.2-2.7,11.9-3.1,17c-0.9,10.8,2.5,9.2,7,11.9c-3.3,6.2-6,1.4-9.4,5.9
		c-4.9,6.3-1.4,19.3,10.4,16.5c4.8-1.2,5.8-7.4,7.7-7.8c4.2,0.5,1.5-0.8,3.2,2.4c1.6,3,3.2,5.6,8,5.7c9.2,0.2,7.6-7.8,11.2-8.1
		c3.4-0.3,2.6,8.2,11.2,8.1c9.4,0,6.1-6.4,10.5-8.1c3.5-0.3,2.7,7.1,9.8,8c11.5,1.5,14.5-13,7.6-19
		C401.1,563.6,395.3,565.8,392.5,563.3L392.5,563.3z"/>
</g>
</svg>
