<svg id="Слой_1" data-name="Слой 1" xmlns="http://www.w3.org/2000/svg" style="enable-background:new 0 0 467.5 470.2;fill:#E27100;" viewBox="0 0 373.65 304"><defs><style>.cls-1{fill:#1a171b;fill-rule:evenodd;}</style></defs><title>Skate</title><path class="cls-1" d="M317.65,539.89l2.15,0.55-2.15-.55h0Zm0,0-1-1,1,1h0Zm-66-68h0Zm65,67c-5.42-.45-60.56-29.43-72.86-35.14l-5.14-2.86c9.85,0.82,11,6.11,14.47-12.53,1.93-10.5-.37-11.77-1.47-16.47l3.85,3.17c11.81-21.61,2.66-21.07,6.81-27.5,4.8-7.45,2.53-5.14,5-13.05,1.57-5.15,4.22-7.63,5.38-12.62,5.69,4.17,9,30.42,14.82,38.18,6.6,8.74,21.72,17.82,31.86,22.14,12.82,5.46,17.79.72,30.32-.32-1.79,7.69-4.73,8-8.87,13.13-10.18,12.73-8.14,2.9-7.46,14.09,0.16,2.6-4.85,13.51-6.29,16.17-4.21,7.79-7,.33-12.39,10.61l2,3h0Zm-190-162c1.2-2.58.71-2,0-5h2c0,5.67.87,3.84-2,5h0Zm0,0c-2.63,3.93-5.65,3.48-3,9l3.6-2.4c3.33-2.86,4.77-2.71,9.14-3.86,7-1.83,5.21-3.27,14-3.37,8.15-.09,7.61.65,15.53-1.09,11.11-2.44,34.73-3.44,49.87-8.13,13.22-4.09,12.71-5.14,29.86-9.14a1.3,1.3,0,0,1,.06.5l1.31,3.09c1.73,1.48,2.87,1.35,5.63,1.41-0.47,5.71-1.94,3.74-1.42,10.42,0.29,3.67-9,27.22-10.31,28.84-14.67,17.57-11.26,21.48-11.26,39.74-4,1.91-6.51.38-10.36,3.65-4.1,3.48-2.05,5.32-1.64,10.35,4.84,1.13,9.87,2.8,15,4l-3.8,4.2c-5.59,3.36-14.18,2.81-20.5,5.5-2.42,1-10.46,4.9-11.92,5.07-4,.46-9.13-4.71-13.31-2.3-5,2.88,10,17.22,12.55,18.52,6.52,3.4,12.21,1.41,15.9,9.1,1.65,3.44,2.3,3,3.09,5.91l-2.2,1.8c-2.18-.65-2.21-1.87-4.21-3.4-12.59-9.61-21.73,13.32-6.57,13.66,7.29,0.16,5-4.57,13.4-.51,7.38,3.58,2.43,4.07,7.82,8.26,7.71,6,18.57-5.46,11-12-5.74-5-8.06.57-11.23-3.76,2.34-.54,2.71-1.22,4.38-1.39l4.33,0.46c3.68-.33-1.53-2,4.55-0.42l64.74,31.35c2.08,1.65,8.81,11.83,4,12.68-3.85.68-3-5.09-10.46-2.25-6.89,2.63-6,14.79,2.57,15.55,5.93,0.53,6.4-2.95,10.71-2.76,11.25,0.48,3.73,10.79,17.2,10.79,5-7.39,6.17-8.28,1-16-4.94,0-7.63,1.09-10,0,2.2-3,2.13-1.85,6.09-2.91l2.93-1.07c3.75-2-2.08-.19,3-2,4.64,4,12.82,6,19,7s12.08,2.39,18.14,2.12c2.62-.12,7.33.15,4.59-3.95-3.12-4.66-17.6-6.78-22.7-7.21,2.46-1.71,5.43-1.92,8-11a19.55,19.55,0,0,1,1.24-3.76c2.25-5.55,3.75-3.49,3.75-11.25a42.94,42.94,0,0,0,10.78-2.22C380.42,518,380,504,383,495.24c4.35-12.95,10.2-23.33,17.45-34.54a56.39,56.39,0,0,0,8-18c3.59-14.63,7.5-10.63,6.31-32.84-0.66-12.24-17.73-13.93-26.08-9.92,1.19-5.12,1.15-4.29-.66-9.39-2.23-6.29-.48-3.33-0.34-9.61,6.51,0,6.88,1.3,9.34,5.66,1.8,3.19,4.95,6.66,5.66,9.34,4.82-.4,6.65-2.23,10-4a94.08,94.08,0,0,1,11.6,7.4c5.72,4.29,27.35,24,30.4,28.6-1.16,5-2.41,6.07-3,12-0.87,9.2-3.44,5-5,11,9.86,2.3,5.41-5.81,14-6,0,19.18-8.2,10.38-9,20,4-.09,3.7-0.46,6-2-0.59,2.53,0,1.29-1.48,3.52-2.67,4.17-.75-1.42-2.52,3.48,4.88,2.34,5.88-.19,8.83-3.16,6.37-6.41,8.44,3.86,16.16-11.84,1.68-3.42,3.3-5.76,5-9l-6.05-8.95c-4.34-7.59-5.35-11.82-10.28-19.72-5.73-9.2-10.37-19.44-17.9-27.1-5.42-5.52-12.09-7.77-17.06-12.94-4.18-4.34-4.88-8.29-9.85-12.15a26.74,26.74,0,0,1-4.1-3.9c-1.54-1.81-1.61-2.55-3.13-3.87-2.27-2-1.39-.79-2.44-1.56-0.17-.12-0.44-0.27-0.6-0.4l-1-1c-3.51-4.12-9.75-16.4-13.11-17.89-1.18-.52-4.16-1.09-5.47-1.53-14.56-4.83-5.66-8.52-16.93-10.07-3.42-.47-3-2.79-9.08-2.92,5-10.41,3.52-4.79,7.93-11.14,3.17-4.55.26-7.26,1.52-15.47,2.83-18.33-9.95-16-12.45-25.39h-0.27c-5.65,0-9.63.07-14.26,1.46-1.54.46-4.25,1.58-5.78,2.22a25.76,25.76,0,0,0-2.75,1.25l-2.89,2.11c-3,3-11.62,15.78-12.05,20.95-2.3-.05-22.37-5.14-17.68,1.78a7.76,7.76,0,0,0,2.59,2.25c11.62,8.14,14.06,3.27,16.09,12-10.44,5.52-11-2.38-22.28,2.69-4.47,2-3.37.86-8.59,1.44-4.81.54-16,5.23-21.93,7.07-2.46.76-4.2,1.8-7,3l-22.12,6.87c-1.71.43-7.27,1-8.5,1.5-5.78,2.56,1.59,3.16-13.84,5.16a184.27,184.27,0,0,0-47.12,11.88c-2.36.91-4.78,1.8-6.71,2.37-5.63,1.68-3.14-.07-7.52.51-7,.92-9.63,9.39-29-0.8-7.69-4-7.3-3.07-13.34,1.33-9.61,7-10.07,6.59-6.81,18.83,1.59,6,3.09,8.2,9.12,4.55,3.42-2.07,2.16-2.42,5.7-3.37h0Z" transform="translate(-110 -269.89)"/></svg>