<?xml version="1.0" encoding="utf-8"?>
<!-- Generator: Adobe Illustrator 19.2.1, SVG Export Plug-In . SVG Version: 6.00 Build 0)  -->
<svg version="1.1" id="Слой_1" xmlns="http://www.w3.org/2000/svg" xmlns:xlink="http://www.w3.org/1999/xlink" x="0px" y="0px"
	 viewBox="125 280 295 295" style="enable-background:new 0 0 467.5 470.2;fill:#E27100;"   xml:space="preserve">
<style type="text/css">
	.st0{fill-rule:evenodd;clip-rule:evenodd;fill:red;width:35PX;height:100%}
</style>
<g>
	<path class="st0" d="M311.1,462.1c-0.6,7.2,3.5,6.8,5.6,10.5l-48.4,20.2c-1.1,0.7,1.8,1.4-2.1,0.6l-1.5-8.7
		c-0.7-2.8-2.5-3.3-3.5-7.7c7.3,1,4.9-1.3,9.1-2.2c3.9-0.8,5.6,1.2,9.1-1.1c1.2-3.4-1.1-2.2-0.9-7c2.1-1.5,1.3-0.7,4.5-0.9
		c0-3.3-0.8-1.6,0-3.5l13.5-4.6c1-2.6,0.4-0.7,0.4-2c0-0.2-0.4-1.8-0.4-1.8l2.1,0c0.1,0,0.9-0.3,1.1-0.4c-1.2-0.4-3.3-1.3-3.6-2.3
		c1.7-0.9,1.8-0.3,4.1,0.2c1.5-1.1,0.9-0.7,1.8-1.9c1.3-1.8,2-2,0.5-4.6c3.3,0.2,5,1.1,7.8,0.5c0.2,0,1-0.4,1.2-0.5
		c-1.1,2-0.2,0.6-0.4,1.9l0.4,5.4C311.9,455.4,311.8,459.3,311.1,462.1L311.1,462.1z M342.6,317.2c-3.8,1.4-3.8,5.4-8,6.7
		c-7.5,2.3-4.1,0.1-8.4,5.5c-0.8,0.7,0.2,0.5-2.1,1.4c-0.4,0.2-2.3,0.4-2.9,0.5c-1.8,1.3-2.2,2.3-4.8,3.9c-9.3,5.8-4.1,3-9,7.5
		l-6.9,5.8c-8.2,4.4-0.9,2.7-7.5,5.3c-5.5,2.1-2.9,3.8-11.7,5.4c-2.7-8.7-15.7-19.9-24.8-9.7c-5.9,6.7-3.4,7.1-5.9,15.1
		c-1,3.3-3.4,2.6-1.7,8.1c0.8,2.6,1.9,3.4,0.5,7.6c-3,1.1-3.7-0.1-6.7,1.8c-8.7,5.5-6.3,13.6-6.9,17.9c-0.5,3.8-2,2.4-1,6.4
		c1.3,5.1,1.2,1.4,0.1,6c-1.1,4.4-0.4,10.2-1.4,15.2l-6,2.5c-0.6,0.5-0.4,0.4-1.7,1.1c-1.2,0.6,1.9-0.3-1.5,0.4
		c-7.9,5.3-5.3,10.4-2.5,18.7c1.3,3.7,1,8.2,2.9,10.7c2,2.5,4.5,3.9,5,8.3c0.7,5.6,7.9,14.8,4.4,20.5l-5.9,7.7
		c-1.6,3.9,2,5.7,2.6,10c-2.8,2.3-15.3,7.4-19.3,9.2c-13.6,5.9-16,4.3-21.2,6.5c1,5.1,10.3,9.1,14.8,10.8c7.9,3,13.3,3.1,21.4,0.8
		c11.4-3.4,24.4-10,34.8-14.7c28.9-13.2,64.6-26,96.1-36c11.5-3.7,32.6-8.9,41.6-17.6c3.7-3.6,8.9-13.9,3.4-20.2
		c-5.3-6.1-15-1-20.7,1.4c-14.9,6.3-25.7,11.3-41.5,15c-2.2-4,0.7-1.5-0.2-6.5c-1-5.4-5.2-12.3-9.5-15.3c0.7-9.6,2.5-2.6-3.7-11.3
		c-8.8-12.4-3.8-15.6-10-23c-4.9-5.8-6.4-3.1-10.7-5.8c-3.6-5.8,0.9-22.9,4.2-27.7c2-2.9,5.6-5.9,8.1-9.2c4.7-6.1,8.3-12.3,16-17.7
		c3.2-2.3,2.9,0.1,5.3-2.9c0.8-1,2-3.8,3.1-5.2c1.8-2.2,2.7-1.8,4.6-3.6c5.6-5.4,1.2-4.9,8.1-8.5c1.9-1,3.6-1.8,4.3-3.2l0.2-3.9
		c0,0-0.1,0.2,0.1-1.3c0.3-2.3,0.7-1.6,0.2-3.5c-0.7-2.4-2.2-2.7-4.4-2.7l-1.8,0.2c-0.1,0-0.3,0.1-0.3,0.1c-1.3,0.7-0.3,4.1-0.5,5.4
		L342.6,317.2L342.6,317.2z M342.6,317.2l10.4-0.1c0.2-1.3-0.8-4.7,0.5-5.4c0.1,0,0.3-0.1,0.3-0.1l1.8-0.2c2.1,0,3.7,0.3,4.4,2.7
		c0.5,1.9,0.2,1.2-0.2,3.5c-0.2,1.5-0.1,1.3-0.1,1.3l-0.2,3.9c2.6-1.1,3.2-2,5.7-3.2c0.7-0.4,2.1-0.8,2.9-1.6c1.5-1.5,0.7-2,0.5-2.4
		l-6.3-1c0.7-2.1-0.9-0.7,1.7-1.7l7.5-0.4c-0.9-4.5-2.3-3.8-6.6-4.4c-2-0.3-9.8-4.1-15.9,4.3C345,318.1,345,314.9,342.6,317.2
		L342.6,317.2z M296.6,457.7c4.3-1.2,7.7-3.3,8.9-7.3l1.1-2.8l1.8,2c0.2,1.6,1.3,3.3,1.5,5.2c0.4,3-0.3,5.1,1.3,7.2
		c0.7-2.9,0.8-6.7,0.5-9.8l-0.4-5.4c0.1-1.4-0.8,0.1,0.4-1.9c-0.2,0.1-1.1,0.4-1.2,0.5c-2.8,0.6-4.4-0.2-7.8-0.5
		c1.5,2.6,0.8,2.9-0.5,4.6c-0.9,1.2-0.3,0.9-1.8,1.9c-2.4-0.5-2.4-1.1-4.1-0.2c0.2,1,2.3,1.8,3.6,2.3c-0.2,0.1-1,0.4-1.1,0.4l-2.1,0
		c0,0,0.4,1.6,0.4,1.8C296.9,457.1,297.5,455.2,296.6,457.7L296.6,457.7z M268.3,492.8c-2.3-0.6-1.4-1.1-1.9-4.3
		c-0.1-0.8-0.3-1.6-0.6-2.4c-0.5-1.2-0.5-0.8-1.1-1.5l1.5,8.7C270.1,494.3,267.2,493.6,268.3,492.8L268.3,492.8z M368.7,315.4
		c-1.5-1,1.7-0.2-2.3-1c-0.8-0.1-2.2-0.2-3.1-0.2c0.5-0.4,0.5-0.8,0.9-1.5c-2.6,1-1-0.4-1.7,1.7L368.7,315.4L368.7,315.4z
		 M321.2,331.3c0.6-0.1,2.4-0.3,2.9-0.5c2.4-0.8,1.3-0.7,2.1-1.4c-0.1,0-2.8,0.5-2.8,0.5C320.8,330.8,322.3,330.3,321.2,331.3
		L321.2,331.3z M305.4,450.4l1.1-1.7l1.8,0.9l-1.8-2L305.4,450.4L305.4,450.4z M224.1,431.5c3.4-0.7,0.3,0.2,1.5-0.4
		c1.4-0.7,1.1-0.6,1.7-1.1c-3.9,0.7-0.2-0.3-1.5,0.3C224.4,431.1,224.8,430.9,224.1,431.5L224.1,431.5z"/>
</g>
</svg>
