<?xml version="1.0" encoding="utf-8"?>
<!-- Generator: Adobe Illustrator 19.2.1, SVG Export Plug-In . SVG Version: 6.00 Build 0)  -->
<svg version="1.1" id="Слой_1" xmlns="http://www.w3.org/2000/svg" xmlns:xlink="http://www.w3.org/1999/xlink" x="0px" y="0px"
	 viewBox="0 0 595.3 841.9"  style="enable-background:new 0 0 595.3 841.9;fill:#E27100;" xml:space="preserve">
<style type="text/css">
	.st0{fill-rule:evenodd;clip-rule:evenodd;  }
</style>
<g>
	<path class="st0" d="M293.7,424.5c0.2,0.1,1.2,0.5,0.2,0.5c-0.7,0.6-1.1,1.1-1.8,1.8c-0.6,0.6-1,1-1.8,1.8
		c-1.8,1.7-2.4,2.9-3.3,3.6c-1.6-1.6-2.4-4.8-2.9-7.7c1.8-0.3,3.3-1.6,4.8-1.6C290.7,422.7,292,424.1,293.7,424.5L293.7,424.5z
		 M278.8,419.2c-0.1-2,1.3-2.4,2-3.8c1.2,0.4,2.1,1,3.6,1.6c0.7,0.2,1.2,0.4,1.9,0.6c0.3,0.1,0.7,0.2,0.9,0.3l0.6,0.4
		c0,0,0.1,0.1,0.1,0.1c-1.6,0-3.4-0.1-5,0.1C281.5,418.6,280.3,419.4,278.8,419.2L278.8,419.2z M299.2,403.4c-0.3-0.1-1-0.2-1.1-0.3
		c-1.1-0.3,0.4-0.4-1-0.1c-0.3-0.4,0-0.1-0.1-0.8c-1.3,0.1-3.3-0.1-4.7-0.3c-2.9-0.3-1.8,0.1-3.7-1.3c-1.1-0.7-2.4-1.3-3.9-0.5
		c-1.4,0.7-1.5,1.4-2.1,2.9c-3.6,0.6-5.1,0.7-8.1,4.2c-2.6,3-3.1,4.5-4.4,7.9c-1,2.8-2,8,0.3,10c2.8,2.5,8.9,1.3,10.1,1.4
		c0.8,1.4,0.6,3.1,1.6,4.7c0.4,0.7,2.5,3.3,2.5,3.8c0,0.2-4.9,7,0.9,7.7c5.5,0.6,14.5-5.4,17.8-7.6c5.5-3.7,9.5-7.6,13.5-12.1
		c1.5-1.6,1.1-1,2.9-3.3c1-1.3,1.9-2.4,2.7-3.8c1.6-2.8,3.4-5.9,3.1-9.7c-7.4-0.2-19.3,8.3-25.2,12.9c-1,0.8-2,2-3,2.5
		c-2.4-0.9-1.8-1-3.1-2.4c-1-1-2.3-1.3-3.6-2.2c-1.1-0.8-2.2-1.3-3.5-2.1c-5.2-3.2-3.1-2.4-2.5-4.1c0.3-0.9,0-1.2,0.1-2.3
		c1.1-0.1,1.5,0.3,2.4,0.4c0.7-0.6-0.2-0.5,2-1.9c0-1.9,0-1.2,0.4-2.7c2-0.1,3.8-0.4,5.8-0.4c1.8,0,4.5,0.6,5.6-0.6l-0.8-0.3
		C299.9,403.5,299.6,403.5,299.2,403.4L299.2,403.4z M297,402.3c0.1,0.7-0.2,0.4,0.1,0.8c1.4-0.3-0.1-0.3,1,0.1
		c0.1,0,0.7,0.2,1.1,0.3l2.6-1c-0.3-0.9-0.3-0.3,0-0.7l0.2-0.5c-1.5-0.1-0.8-0.4-2.6,0.1C298.3,401.6,297.9,401.9,297,402.3
		L297,402.3z M301.7,402.4c0.6-0.3,0.4,0.3,0.4-0.5l-0.4-0.2C301.4,402,301.4,401.5,301.7,402.4L301.7,402.4z M293.9,425
		c1,0,0-0.4-0.2-0.5C293.9,424.8,293.8,424.6,293.9,425L293.9,425z"/>
</g>
</svg>
